<svg xmlns="http://www.w3.org/2000/svg" xmlns:xlink="http://www.w3.org/1999/xlink" width="24" height="26" viewBox="0 0 24 26"><defs><path id="xp9aa" d="M601.03 31.77V18.9c0-1.3.83-2.51 2.09-2.82a2.73 2.73 0 0 1 3.4 2.66v5.73c0 .55.34 1.05.85 1.27l6.1 2.52a2.75 2.75 0 0 1 1.62 3.19l-1.83 7.5c-.15.62-.7 1.05-1.34 1.05h-9.84c-.36 0-.71-.15-.97-.4l-7.21-7.22c-1.06-1.05-1.24-2.79-.25-3.9a2.68 2.68 0 0 1 2.05-.93c.7 0 1.4.27 1.93.81z"/></defs><g><g transform="translate(-592 -15)"><use fill="#fff" fill-opacity="0" stroke="#8998ac" stroke-linecap="round" stroke-linejoin="round" stroke-miterlimit="50" xlink:href="#xp9aa"/></g></g></svg>