<svg xmlns="http://www.w3.org/2000/svg" xmlns:xlink="http://www.w3.org/1999/xlink" width="25" height="25" viewBox="0 0 25 25"><defs><path id="4viva" d="M28 79h-6a2 2 0 0 1-2-2v-6c0-1.1.9-2 2-2h6a2 2 0 0 1 2 2v6a2 2 0 0 1-2 2z"/><path id="4vivb" d="M28 92h-6a2 2 0 0 1-2-2v-6c0-1.1.9-2 2-2h6a2 2 0 0 1 2 2v6a2 2 0 0 1-2 2z"/><path id="4vivc" d="M41 79h-6a2 2 0 0 1-2-2v-6c0-1.1.9-2 2-2h6a2 2 0 0 1 2 2v6a2 2 0 0 1-2 2z"/><path id="4vivd" d="M41 92h-6a2 2 0 0 1-2-2v-6c0-1.1.9-2 2-2h6a2 2 0 0 1 2 2v6a2 2 0 0 1-2 2z"/></defs><g><g transform="translate(-19 -68)"><g><use fill="#fff" fill-opacity="0" stroke="#39475b" stroke-linecap="round" stroke-linejoin="round" stroke-miterlimit="50" xlink:href="#4viva"/></g><g><use fill="#fff" fill-opacity="0" stroke="#39475b" stroke-linecap="round" stroke-linejoin="round" stroke-miterlimit="50" xlink:href="#4vivb"/></g><g><use fill="#fff" fill-opacity="0" stroke="#39475b" stroke-linecap="round" stroke-linejoin="round" stroke-miterlimit="50" xlink:href="#4vivc"/></g><g><use fill="#fff" fill-opacity="0" stroke="#39475b" stroke-linecap="round" stroke-linejoin="round" stroke-miterlimit="50" xlink:href="#4vivd"/></g></g></g></svg>