<svg xmlns="http://www.w3.org/2000/svg" xmlns:xlink="http://www.w3.org/1999/xlink" width="26" height="25" viewBox="0 0 26 25"><defs><path id="56g3a" d="M467.65 22.17h-23.89"/><path id="56g3b" d="M465.21 39.45h-18a2.94 2.94 0 0 1-2.95-2.94V18.94A2.94 2.94 0 0 1 447.2 16h18.01a2.94 2.94 0 0 1 2.94 2.94v17.57a2.94 2.94 0 0 1-2.94 2.94z"/><path id="56g3c" d="M449.68 34.87l4.02-4.03a.74.74 0 0 1 1.05 0l2.03 2.04c.29.28.76.28 1.04 0l5.15-5.15"/><path id="56g3d" d="M459.52 27.73h3.45v3.45"/></defs><g><g transform="translate(-443 -15)"><g><use fill="#fff" fill-opacity="0" stroke="#8998ac" stroke-linecap="round" stroke-linejoin="round" stroke-miterlimit="50" xlink:href="#56g3a"/></g><g><use fill="#fff" fill-opacity="0" stroke="#8998ac" stroke-linecap="round" stroke-linejoin="round" stroke-miterlimit="50" xlink:href="#56g3b"/></g><g><use fill="#fff" fill-opacity="0" stroke="#8998ac" stroke-linecap="round" stroke-linejoin="round" stroke-miterlimit="50" xlink:href="#56g3c"/></g><g><use fill="#fff" fill-opacity="0" stroke="#8998ac" stroke-linecap="round" stroke-linejoin="round" stroke-miterlimit="50" xlink:href="#56g3d"/></g></g></g></svg>